<svg id="Layer_1" data-name="Layer 1" xmlns="http://www.w3.org/2000/svg" xmlns:xlink="http://www.w3.org/1999/xlink" viewBox="0 0 34.8 37.87"><defs><style>.cls-1{fill:#fff;}.cls-1,.cls-3{fill-rule:evenodd;}.cls-2{mask:url(#mask);}.cls-3{fill:#101737;}</style><mask id="mask" x="0" y="0" width="34.8" height="37.87" maskUnits="userSpaceOnUse"><g id="mask-4"><path id="path-3" class="cls-1" d="M0,18.93A18.94,18.94,0,0,0,18.93,37.87h0a18.91,18.91,0,0,0,14.37-6.6h0c.3-.35.59-.71.86-1.08h0a4.66,4.66,0,0,0,.64-2.34h0a4.68,4.68,0,0,0-4.67-4.67h0a4.65,4.65,0,0,0-3.42,1.5h0a6.77,6.77,0,0,1-.43.54h0a9.63,9.63,0,0,1-7.35,3.38h0a9.67,9.67,0,0,1-9.67-9.67h0a9.66,9.66,0,0,1,9.67-9.66h0a9.63,9.63,0,0,1,7.27,3.29h0a7,7,0,0,1,.6.75h0a4.65,4.65,0,0,0,3.33,1.41h0a4.68,4.68,0,0,0,4.67-4.67h0a4.67,4.67,0,0,0-.75-2.53h0c-.19-.25-.39-.49-.59-.73h0A18.89,18.89,0,0,0,18.93,0h0A18.94,18.94,0,0,0,0,18.93"/></g></mask></defs><g id="Page-1"><g id="Group-Copy-5"><g id="Group-6"><g class="cls-2"><path id="Fill-4" class="cls-3" d="M0,18.93A18.94,18.94,0,0,0,18.93,37.87h0a18.91,18.91,0,0,0,14.37-6.6h0c.3-.35.59-.71.86-1.08h0a4.66,4.66,0,0,0,.64-2.34h0a4.68,4.68,0,0,0-4.67-4.67h0a4.65,4.65,0,0,0-3.42,1.5h0a6.77,6.77,0,0,1-.43.54h0a9.63,9.63,0,0,1-7.35,3.38h0a9.67,9.67,0,0,1-9.67-9.67h0a9.66,9.66,0,0,1,9.67-9.66h0a9.63,9.63,0,0,1,7.27,3.29h0a7,7,0,0,1,.6.75h0a4.65,4.65,0,0,0,3.33,1.41h0a4.68,4.68,0,0,0,4.67-4.67h0a4.67,4.67,0,0,0-.75-2.53h0c-.19-.25-.39-.49-.59-.73h0A18.89,18.89,0,0,0,18.93,0h0A18.94,18.94,0,0,0,0,18.93"/></g></g></g></g></svg>